<?xml version="1.0" standalone="no"?>
<!DOCTYPE svg PUBLIC "-//W3C//DTD SVG 20010904//EN"
 "http://www.w3.org/TR/2001/REC-SVG-20010904/DTD/svg10.dtd">
<svg version="1.0" xmlns="http://www.w3.org/2000/svg"
 width="500.000000pt" height="500.000000pt" viewBox="0 0 500.000000 500.000000"
 preserveAspectRatio="xMidYMid meet">
<metadata>
Created by potrace 1.16, written by Peter Selinger 2001-2019
</metadata>
<g transform="translate(0.000000,500.000000) scale(0.100000,-0.100000)"
fill="#3A4B40" stroke="none">
<path d="M2010 3413 c-569 -107 -1046 -200 -1059 -206 -13 -7 -34 -25 -45 -40
-21 -28 -21 -35 -21 -666 0 -596 1 -639 18 -664 10 -15 32 -34 50 -42 33 -15
2095 -405 2142 -405 14 0 37 11 50 25 l25 24 0 1061 0 1061 -25 24 c-18 19
-34 25 -62 24 -21 -1 -504 -89 -1073 -196z m1010 -913 c0 -522 -2 -950 -5
-950 -2 0 -413 77 -912 171 -499 94 -945 177 -991 186 l-82 15 0 578 0 578
168 32 c866 164 1799 339 1810 339 9 1 12 -195 12 -949z"/>
<path d="M3350 3420 l-25 -19 -3 -878 c-2 -620 0 -889 8 -916 17 -58 74 -71
123 -29 16 14 17 71 17 918 l0 903 -26 20 c-33 26 -62 26 -94 1z"/>
<path d="M3651 3194 c-21 -26 -21 -34 -21 -701 l0 -674 25 -24 c31 -32 74 -33
103 -2 l22 23 0 682 c0 669 0 682 -20 702 -30 30 -83 27 -109 -6z"/>
<path d="M3960 2968 c-19 -21 -20 -33 -20 -469 0 -436 0 -447 21 -473 26 -33
79 -36 109 -6 19 19 20 33 20 473 0 511 2 497 -70 497 -27 0 -45 -7 -60 -22z"/>
</g>
</svg>
